<svg xmlns="http://www.w3.org/2000/svg" xmlns:xlink="http://www.w3.org/1999/xlink" version="1.1" width="256" height="256" viewBox="0 0 256 256" xml:space="preserve">

<defs>
</defs>
<g style="stroke: none; stroke-width: 0; stroke-dasharray: none; stroke-linecap: butt; stroke-linejoin: miter; stroke-miterlimit: 10; fill: none; fill-rule: nonzero; opacity: 1;" transform="translate(1.4065934065934016 1.4065934065934016) scale(2.81 2.81)" >
	<path d="M 20.576 7.25 C 41.084 -6.263 68.47 -0.308 81.881 20.306 c 0.673 1.26 1.351 2.407 2.029 3.666 v 0.113 c 0.446 1.147 0.11 2.52 -0.905 3.208 L 41.649 54.551 c -1.129 0.802 -2.593 0.458 -3.381 -0.689 l -2.142 -3.322 c -1.915 -2.978 -1.014 -6.983 1.915 -8.932 l 26.485 -17.524 c 1.124 -0.802 1.464 -2.288 0.674 -3.435 c -0.111 -0.231 -0.224 -0.458 -0.451 -0.571 c -10.254 -8.591 -25.243 -9.851 -37.076 -2.062 C 13.138 27.751 8.967 47.563 18.434 62.34 c 9.466 14.773 28.963 19.01 43.498 9.39 c 2.93 -1.948 6.874 -1.029 8.789 1.948 l 2.029 3.204 c 0.678 1.146 0.451 2.523 -0.563 3.322 c -1.014 0.919 -2.139 1.718 -3.381 2.523 C 48.298 96.24 20.913 90.399 7.503 69.554 C -5.795 48.709 0.065 20.88 20.576 7.25 L 20.576 7.25 z" style="stroke: none; stroke-width: 1; stroke-dasharray: none; stroke-linecap: butt; stroke-linejoin: miter; stroke-miterlimit: 10; fill: rgb(2,182,253); fill-rule: nonzero; opacity: 1;" transform=" matrix(1 0 0 1 0 0) " stroke-linecap="round" />
	<path d="M 82.331 43.67 c 1.124 -0.688 2.589 -0.344 3.381 0.688 l 2.702 4.238 c 2.234 3.479 1.283 8.104 -2.142 10.422 l -4.167 2.751 c -1.128 0.798 -2.593 0.454 -3.381 -0.689 l -5.408 -8.478 c -0.791 -1.142 -0.451 -2.633 0.674 -3.435 L 82.331 43.67 z" style="stroke: none; stroke-width: 1; stroke-dasharray: none; stroke-linecap: butt; stroke-linejoin: miter; stroke-miterlimit: 10; fill: rgb(2,182,253); fill-rule: nonzero; opacity: 1;" transform=" matrix(1 0 0 1 0 0) " stroke-linecap="round" />
</g>
</svg>